<mxfile host="app.diagrams.net" modified="2024-03-13T14:51:56.649Z" agent="Mozilla/5.0 (X11; Ubuntu; Linux x86_64; rv:123.0) Gecko/20100101 Firefox/123.0" version="24.0.5" etag="36p91eU-O4cQ9tm0l-Wx" type="github">
  <diagram name="Page-1" id="_iT0_7cl5lhxkJCvYach">
    <mxGraphModel>
      <root>
        <mxCell id="0" />
        <mxCell id="1" parent="0" />
      </root>
    </mxGraphModel>
  </diagram>
</mxfile>
